<?xml version="1.0" encoding="utf-8"?>
<svg xmlns="http://www.w3.org/2000/svg" viewBox="-573.358 -662.973 1844.307 1843.912">
  <ellipse style="fill: rgb(159, 239, 0);" cx="349.392" cy="259.208" rx="921.004" ry="921.004"/>
  <g>
    <ellipse style="transform-box: fill-box; transform-origin: 50% 50%; fill: rgb(18, 28, 43);" cx="316.55" cy="136.952" rx="862.777" ry="862.777" transform="matrix(0.999961, 0.008837, -0.008837, 0.999961, 35.813972, 124.428894)"/>
  </g>
  <path style="fill: rgb(159, 239, 0);" d="M -485.746 555.974 L -117.274 288.5 L 79.963 465.191 L 453.891 148.791 L 618.255 374.791 L 998.274 -364.442 L 1078.297 -272.209 L 625.402 593.325 L 436.467 310.02 L 72.989 629.45 L -137.935 435.984 L -443.189 650.53 C -443.189 650.53 -489.544 565.476 -485.746 555.974 Z"/>
  <path style="fill: rgb(159, 239, 0);" d="M -425.32 693.88 L -146.406 501.526 L 71.05 698.439 L 413.199 436.932 L 632.455 723.602 L 1110.387 -205.82 L 1144.503 -142.972 L 639.602 815.013 L 404.442 505.711 L 69.854 764.46 L -143.954 568.112 L -400.096 742.214 C -400.096 742.214 -429.12 703.38 -425.32 693.88 Z"/>
</svg>